<svg width="100" height="100" viewBox="0 0 100 100" fill="none" xmlns="http://www.w3.org/2000/svg">
<path d="M22.2221 22.7775H66.6665V27.222H22.2221V22.7775ZM22.2221 44.9998H44.6832V49.4442H22.2221V44.9998ZM64.9387 33.8886H22.2221V38.3331H60.4971L64.9387 33.8886ZM35.5387 80.7553C36.2856 81.6116 37.2335 82.2691 38.2972 82.6686C39.361 83.0681 40.5073 83.1972 41.6332 83.0442H63.311C63.8267 83.0442 64.3212 82.8393 64.6859 82.4747C65.0506 82.11 65.2554 81.6154 65.2554 81.0997C65.2554 80.584 65.0506 80.0895 64.6859 79.7248C64.3212 79.3602 63.8267 79.1553 63.311 79.1553H41.6332C39.1026 79.1109 39.5526 76.9136 39.9082 76.2331C40.3708 75.4338 40.7319 74.58 40.9832 73.6914C41.1508 72.9761 41.0732 72.2252 40.7629 71.5593C40.4526 70.8934 39.9276 70.351 39.2721 70.0192C38.2205 69.5459 37.0428 69.4301 35.9191 69.6894C34.7955 69.9488 33.7877 70.569 33.0499 71.4553C32.0943 72.4414 30.7665 73.9497 29.4943 75.4164C30.2804 72.3359 31.2999 68.3831 32.2999 64.5275C32.5864 63.649 32.5294 62.6945 32.1402 61.8564C31.751 61.0183 31.0587 60.3588 30.2026 60.0109C29.2546 59.6856 28.2185 59.7321 27.3034 60.1409C26.3883 60.5497 25.6623 61.2905 25.2721 62.2136C24.0721 64.522 14.5721 80.4414 14.4776 80.6025C14.3467 80.8218 14.2602 81.0646 14.2231 81.3173C14.186 81.57 14.199 81.8275 14.2615 82.0751C14.3875 82.5752 14.7071 83.0047 15.1499 83.2692C15.5926 83.5337 16.1223 83.6114 16.6224 83.4854C17.1225 83.3593 17.552 83.0397 17.8165 82.597C18.1721 81.9997 25.7554 69.297 28.1471 65.0553C26.3471 71.9997 24.3637 79.7275 24.2471 80.422C24.1162 80.9325 24.1559 81.4719 24.36 81.9578C24.5641 82.4438 24.9215 82.8496 25.3776 83.1136C25.8861 83.3658 26.4641 83.4415 27.0204 83.3289C27.5766 83.2162 28.0796 82.9216 28.4499 82.4914C28.7999 82.1748 29.4554 81.422 31.1082 79.5025C32.648 77.6914 34.2252 75.9123 35.8387 74.1664C36.4443 73.5275 36.811 73.8109 36.4554 74.4386C35.7597 75.3174 35.3084 76.3644 35.1475 77.4737C34.9865 78.5829 35.1215 79.715 35.5387 80.7553Z" fill="white"/>
<path d="M77.7779 60.264V88.889H11.1112V11.1112H77.7779V24.9807L81.4723 21.2862C82.041 20.7252 82.6645 20.2227 83.3334 19.7862V8.33344C83.3334 7.59673 83.0408 6.89019 82.5198 6.36926C81.9989 5.84832 81.2924 5.55566 80.5557 5.55566H8.33344C7.59673 5.55566 6.89019 5.84832 6.36926 6.36926C5.84832 6.89019 5.55566 7.59673 5.55566 8.33344V91.6668C5.55566 92.4035 5.84832 93.11 6.36926 93.631C6.89019 94.1519 7.59673 94.4445 8.33344 94.4445H80.5557C81.2924 94.4445 81.9989 94.1519 82.5198 93.631C83.0408 93.11 83.3334 92.4035 83.3334 91.6668V59.5196C81.6304 60.4247 79.6591 60.6889 77.7779 60.264Z" fill="white"/>
<path d="M94.8001 32.9468L93.3473 31.4941C94.0888 30.5124 94.464 29.3026 94.4083 28.0737C94.3525 26.8448 93.8691 25.6739 93.0418 24.7635C91.9665 23.8158 90.5604 23.3314 89.1297 23.4157C87.6989 23.4999 86.3594 24.1461 85.4029 25.2135L50.6112 59.9996L48.2862 68.7274C48.2494 68.8416 48.2449 68.9637 48.2733 69.0803C48.3016 69.1969 48.3617 69.3034 48.4468 69.3879C48.532 69.4725 48.6388 69.5318 48.7556 69.5594C48.8724 69.5869 48.9945 69.5816 49.1084 69.5441L57.8057 67.1913L90.2834 34.7135L91.6557 36.0885C91.7518 36.184 91.8281 36.2976 91.8802 36.4228C91.9323 36.5479 91.9591 36.6821 91.9591 36.8177C91.9591 36.9532 91.9323 37.0874 91.8802 37.2126C91.8281 37.3377 91.7518 37.4513 91.6557 37.5468L77.9973 51.2052C77.5807 51.6222 77.3468 52.1876 77.3471 52.777C77.3473 53.3664 77.5817 53.9316 77.9987 54.3482C78.4157 54.7648 78.9811 54.9987 79.5705 54.9985C80.16 54.9982 80.7252 54.7638 81.1418 54.3468L94.8001 40.6885C95.3091 40.1803 95.7129 39.5767 95.9884 38.9122C96.2639 38.2478 96.4057 37.5356 96.4057 36.8163C96.4057 36.097 96.2639 35.3848 95.9884 34.7203C95.7129 34.0559 95.3091 33.4523 94.8001 32.9441" fill="white"/>
</svg>
