<svg width="105" height="105" viewBox="0 0 105 105" fill="none" xmlns="http://www.w3.org/2000/svg">
<path d="M0 22.5C0 16.5326 2.37053 10.8097 6.5901 6.5901C10.8097 2.37053 16.5326 0 22.5 0H82.5C88.4674 0 94.1903 2.37053 98.4099 6.5901C102.629 10.8097 105 16.5326 105 22.5V82.5C105 88.4674 102.629 94.1903 98.4099 98.4099C94.1903 102.629 88.4674 105 82.5 105H22.5C16.5326 105 10.8097 102.629 6.5901 98.4099C2.37053 94.1903 0 88.4674 0 82.5V22.5ZM7.5 22.5H15C15 21.0082 15.5926 19.5774 16.6475 18.5225C17.7024 17.4676 19.1332 16.875 20.625 16.875C22.1168 16.875 23.5476 17.4676 24.6025 18.5225C25.6574 19.5774 26.25 21.0082 26.25 22.5C26.25 21.0082 26.8426 19.5774 27.8975 18.5225C28.9524 17.4676 30.3832 16.875 31.875 16.875C33.3668 16.875 34.7976 17.4676 35.8525 18.5225C36.9074 19.5774 37.5 21.0082 37.5 22.5C37.5 21.0082 38.0926 19.5774 39.1475 18.5225C40.2024 17.4676 41.6332 16.875 43.125 16.875C44.6168 16.875 46.0476 17.4676 47.1025 18.5225C48.1574 19.5774 48.75 21.0082 48.75 22.5C48.75 21.0082 49.3426 19.5774 50.3975 18.5225C51.4524 17.4676 52.8832 16.875 54.375 16.875C55.8668 16.875 57.2976 17.4676 58.3525 18.5225C59.4074 19.5774 60 21.0082 60 22.5H78.75C78.75 21.0082 79.3426 19.5774 80.3975 18.5225C81.4524 17.4676 82.8832 16.875 84.375 16.875C85.8668 16.875 87.2976 17.4676 88.3525 18.5225C89.4074 19.5774 90 21.0082 90 22.5H97.5C97.5 18.5218 95.9196 14.7064 93.1066 11.8934C90.2936 9.08035 86.4782 7.5 82.5 7.5H22.5C18.5218 7.5 14.7064 9.08035 11.8934 11.8934C9.08035 14.7064 7.5 18.5218 7.5 22.5ZM84.375 31.875C82.8832 31.875 81.4524 31.2824 80.3975 30.2275C79.3426 29.1726 78.75 27.7418 78.75 26.25H60C60 27.7418 59.4074 29.1726 58.3525 30.2275C57.2976 31.2824 55.8668 31.875 54.375 31.875C52.8832 31.875 51.4524 31.2824 50.3975 30.2275C49.3426 29.1726 48.75 27.7418 48.75 26.25C48.75 27.7418 48.1574 29.1726 47.1025 30.2275C46.0476 31.2824 44.6168 31.875 43.125 31.875C41.6332 31.875 40.2024 31.2824 39.1475 30.2275C38.0926 29.1726 37.5 27.7418 37.5 26.25C37.5 27.7418 36.9074 29.1726 35.8525 30.2275C34.7976 31.2824 33.3668 31.875 31.875 31.875C30.3832 31.875 28.9524 31.2824 27.8975 30.2275C26.8426 29.1726 26.25 27.7418 26.25 26.25C26.25 27.7418 25.6574 29.1726 24.6025 30.2275C23.5476 31.2824 22.1168 31.875 20.625 31.875C19.1332 31.875 17.7024 31.2824 16.6475 30.2275C15.5926 29.1726 15 27.7418 15 26.25H7.5V41.25H15C15 39.7582 15.5926 38.3274 16.6475 37.2725C17.7024 36.2176 19.1332 35.625 20.625 35.625C22.1168 35.625 23.5476 36.2176 24.6025 37.2725C25.6574 38.3274 26.25 39.7582 26.25 41.25C26.25 39.7582 26.8426 38.3274 27.8975 37.2725C28.9524 36.2176 30.3832 35.625 31.875 35.625C33.3668 35.625 34.7976 36.2176 35.8525 37.2725C36.9074 38.3274 37.5 39.7582 37.5 41.25C37.5 39.7582 38.0926 38.3274 39.1475 37.2725C40.2024 36.2176 41.6332 35.625 43.125 35.625C44.6168 35.625 46.0476 36.2176 47.1025 37.2725C48.1574 38.3274 48.75 39.7582 48.75 41.25C48.75 39.7582 49.3426 38.3274 50.3975 37.2725C51.4524 36.2176 52.8832 35.625 54.375 35.625C55.8668 35.625 57.2976 36.2176 58.3525 37.2725C59.4074 38.3274 60 39.7582 60 41.25H78.75C78.75 39.7582 79.3426 38.3274 80.3975 37.2725C81.4524 36.2176 82.8832 35.625 84.375 35.625C85.8668 35.625 87.2976 36.2176 88.3525 37.2725C89.4074 38.3274 90 39.7582 90 41.25H97.5V26.25H90C90 27.7418 89.4074 29.1726 88.3525 30.2275C87.2976 31.2824 85.8668 31.875 84.375 31.875ZM78.75 45H60C60 46.4918 59.4074 47.9226 58.3525 48.9775C57.2976 50.0324 55.8668 50.625 54.375 50.625C52.8832 50.625 51.4524 50.0324 50.3975 48.9775C49.3426 47.9226 48.75 46.4918 48.75 45C48.75 46.4918 48.1574 47.9226 47.1025 48.9775C46.0476 50.0324 44.6168 50.625 43.125 50.625C41.6332 50.625 40.2024 50.0324 39.1475 48.9775C38.0926 47.9226 37.5 46.4918 37.5 45C37.5 46.4918 36.9074 47.9226 35.8525 48.9775C34.7976 50.0324 33.3668 50.625 31.875 50.625C30.3832 50.625 28.9524 50.0324 27.8975 48.9775C26.8426 47.9226 26.25 46.4918 26.25 45C26.25 46.4918 25.6574 47.9226 24.6025 48.9775C23.5476 50.0324 22.1168 50.625 20.625 50.625C19.1332 50.625 17.7024 50.0324 16.6475 48.9775C15.5926 47.9226 15 46.4918 15 45H7.5V60H15C15 58.5082 15.5926 57.0774 16.6475 56.0225C17.7024 54.9676 19.1332 54.375 20.625 54.375C22.1168 54.375 23.5476 54.9676 24.6025 56.0225C25.6574 57.0774 26.25 58.5082 26.25 60C26.25 58.5082 26.8426 57.0774 27.8975 56.0225C28.9524 54.9676 30.3832 54.375 31.875 54.375C33.3668 54.375 34.7976 54.9676 35.8525 56.0225C36.9074 57.0774 37.5 58.5082 37.5 60C37.5 58.5082 38.0926 57.0774 39.1475 56.0225C40.2024 54.9676 41.6332 54.375 43.125 54.375C44.6168 54.375 46.0476 54.9676 47.1025 56.0225C48.1574 57.0774 48.75 58.5082 48.75 60C48.75 58.5082 49.3426 57.0774 50.3975 56.0225C51.4524 54.9676 52.8832 54.375 54.375 54.375C55.8668 54.375 57.2976 54.9676 58.3525 56.0225C59.4074 57.0774 60 58.5082 60 60H78.75C78.75 58.5082 79.3426 57.0774 80.3975 56.0225C81.4524 54.9676 82.8832 54.375 84.375 54.375C85.8668 54.375 87.2976 54.9676 88.3525 56.0225C89.4074 57.0774 90 58.5082 90 60H97.5V45H90C90 46.4918 89.4074 47.9226 88.3525 48.9775C87.2976 50.0324 85.8668 50.625 84.375 50.625C82.8832 50.625 81.4524 50.0324 80.3975 48.9775C79.3426 47.9226 78.75 46.4918 78.75 45ZM84.375 69.375C82.8832 69.375 81.4524 68.7824 80.3975 67.7275C79.3426 66.6726 78.75 65.2418 78.75 63.75H60C60 65.2418 59.4074 66.6726 58.3525 67.7275C57.2976 68.7824 55.8668 69.375 54.375 69.375C52.8832 69.375 51.4524 68.7824 50.3975 67.7275C49.3426 66.6726 48.75 65.2418 48.75 63.75C48.75 65.2418 48.1574 66.6726 47.1025 67.7275C46.0476 68.7824 44.6168 69.375 43.125 69.375C41.6332 69.375 40.2024 68.7824 39.1475 67.7275C38.0926 66.6726 37.5 65.2418 37.5 63.75C37.5 65.2418 36.9074 66.6726 35.8525 67.7275C34.7976 68.7824 33.3668 69.375 31.875 69.375C30.3832 69.375 28.9524 68.7824 27.8975 67.7275C26.8426 66.6726 26.25 65.2418 26.25 63.75C26.25 65.2418 25.6574 66.6726 24.6025 67.7275C23.5476 68.7824 22.1168 69.375 20.625 69.375C19.1332 69.375 17.7024 68.7824 16.6475 67.7275C15.5926 66.6726 15 65.2418 15 63.75H7.5V78.75H15C15 77.2582 15.5926 75.8274 16.6475 74.7725C17.7024 73.7176 19.1332 73.125 20.625 73.125C22.1168 73.125 23.5476 73.7176 24.6025 74.7725C25.6574 75.8274 26.25 77.2582 26.25 78.75C26.25 77.2582 26.8426 75.8274 27.8975 74.7725C28.9524 73.7176 30.3832 73.125 31.875 73.125C33.3668 73.125 34.7976 73.7176 35.8525 74.7725C36.9074 75.8274 37.5 77.2582 37.5 78.75C37.5 77.2582 38.0926 75.8274 39.1475 74.7725C40.2024 73.7176 41.6332 73.125 43.125 73.125C44.6168 73.125 46.0476 73.7176 47.1025 74.7725C48.1574 75.8274 48.75 77.2582 48.75 78.75C48.75 77.2582 49.3426 75.8274 50.3975 74.7725C51.4524 73.7176 52.8832 73.125 54.375 73.125C55.8668 73.125 57.2976 73.7176 58.3525 74.7725C59.4074 75.8274 60 77.2582 60 78.75H78.75C78.75 77.2582 79.3426 75.8274 80.3975 74.7725C81.4524 73.7176 82.8832 73.125 84.375 73.125C85.8668 73.125 87.2976 73.7176 88.3525 74.7725C89.4074 75.8274 90 77.2582 90 78.75H97.5V63.75H90C90 65.2418 89.4074 66.6726 88.3525 67.7275C87.2976 68.7824 85.8668 69.375 84.375 69.375ZM78.75 82.5H60C60 83.9918 59.4074 85.4226 58.3525 86.4775C57.2976 87.5324 55.8668 88.125 54.375 88.125C52.8832 88.125 51.4524 87.5324 50.3975 86.4775C49.3426 85.4226 48.75 83.9918 48.75 82.5C48.75 83.9918 48.1574 85.4226 47.1025 86.4775C46.0476 87.5324 44.6168 88.125 43.125 88.125C41.6332 88.125 40.2024 87.5324 39.1475 86.4775C38.0926 85.4226 37.5 83.9918 37.5 82.5C37.5 83.9918 36.9074 85.4226 35.8525 86.4775C34.7976 87.5324 33.3668 88.125 31.875 88.125C30.3832 88.125 28.9524 87.5324 27.8975 86.4775C26.8426 85.4226 26.25 83.9918 26.25 82.5C26.25 83.9918 25.6574 85.4226 24.6025 86.4775C23.5476 87.5324 22.1168 88.125 20.625 88.125C19.1332 88.125 17.7024 87.5324 16.6475 86.4775C15.5926 85.4226 15 83.9918 15 82.5H7.5C7.5 86.4782 9.08035 90.2936 11.8934 93.1066C14.7064 95.9196 18.5218 97.5 22.5 97.5H82.5C86.4782 97.5 90.2936 95.9196 93.1066 93.1066C95.9196 90.2936 97.5 86.4782 97.5 82.5H90C90 83.9918 89.4074 85.4226 88.3525 86.4775C87.2976 87.5324 85.8668 88.125 84.375 88.125C82.8832 88.125 81.4524 87.5324 80.3975 86.4775C79.3426 85.4226 78.75 83.9918 78.75 82.5Z" fill="white"/>
</svg>
