<svg width="100" height="62" viewBox="0 0 100 62" fill="none" xmlns="http://www.w3.org/2000/svg">
<path d="M33.3333 58.1667C35.5435 58.1667 37.6631 57.2887 39.2259 55.7259C40.7887 54.1631 41.6667 52.0435 41.6667 49.8333C41.6667 47.6232 40.7887 45.5036 39.2259 43.9408C37.6631 42.378 35.5435 41.5 33.3333 41.5C31.1232 41.5 29.0036 42.378 27.4408 43.9408C25.878 45.5036 25 47.6232 25 49.8333C25 52.0435 25.878 54.1631 27.4408 55.7259C29.0036 57.2887 31.1232 58.1667 33.3333 58.1667ZM75 58.1667C77.2101 58.1667 79.3297 57.2887 80.8926 55.7259C82.4554 54.1631 83.3333 52.0435 83.3333 49.8333C83.3333 47.6232 82.4554 45.5036 80.8926 43.9408C79.3297 42.378 77.2101 41.5 75 41.5C72.7899 41.5 70.6702 42.378 69.1074 43.9408C67.5446 45.5036 66.6667 47.6232 66.6667 49.8333C66.6667 52.0435 67.5446 54.1631 69.1074 55.7259C70.6702 57.2887 72.7899 58.1667 75 58.1667Z" stroke="white" stroke-width="7.5" stroke-miterlimit="1.5" stroke-linecap="round" stroke-linejoin="round"/>
<path d="M41.875 49.8333H62.5V6.5C62.5 5.83696 62.2366 5.20107 61.7678 4.73223C61.2989 4.26339 60.663 4 60 4H4.16666M23.5417 49.8333H15C14.6717 49.8333 14.3466 49.7687 14.0433 49.643C13.74 49.5174 13.4644 49.3332 13.2322 49.1011C13.0001 48.869 12.8159 48.5934 12.6903 48.29C12.5647 47.9867 12.5 47.6616 12.5 47.3333V26.9167" stroke="white" stroke-width="7.5" stroke-linecap="round"/>
<path d="M8.33331 16.5H25" stroke="white" stroke-width="7.5" stroke-linecap="round" stroke-linejoin="round"/>
<path d="M62.5 16.5H85.875C86.3582 16.5001 86.8311 16.6403 87.2363 16.9035C87.6416 17.1668 87.9618 17.5419 88.1583 17.9833L95.6167 34.7667C95.7588 35.0853 95.8326 35.4302 95.8333 35.7792V47.3333C95.8333 47.6616 95.7687 47.9867 95.643 48.29C95.5174 48.5934 95.3332 48.869 95.1011 49.1011C94.869 49.3332 94.5934 49.5174 94.29 49.643C93.9867 49.7687 93.6616 49.8333 93.3333 49.8333H85.4167M62.5 49.8333H66.6667" stroke="white" stroke-width="7.5" stroke-linecap="round"/>
</svg>
