<svg width="45" height="45" viewBox="0 0 45 45" fill="none" xmlns="http://www.w3.org/2000/svg">
<path d="M7.03125 9.84375C6.65829 9.84375 6.3006 9.99191 6.03688 10.2556C5.77316 10.5194 5.625 10.877 5.625 11.25C5.625 11.623 5.77316 11.9806 6.03688 12.2444C6.3006 12.5081 6.65829 12.6562 7.03125 12.6562H37.9688C38.3417 12.6562 38.6994 12.5081 38.9631 12.2444C39.2268 11.9806 39.375 11.623 39.375 11.25C39.375 10.877 39.2268 10.5194 38.9631 10.2556C38.6994 9.99191 38.3417 9.84375 37.9688 9.84375H7.03125ZM7.03125 21.0938C6.65829 21.0938 6.3006 21.2419 6.03688 21.5056C5.77316 21.7694 5.625 22.127 5.625 22.5C5.625 22.873 5.77316 23.2306 6.03688 23.4944C6.3006 23.7581 6.65829 23.9062 7.03125 23.9062H37.9688C38.3417 23.9062 38.6994 23.7581 38.9631 23.4944C39.2268 23.2306 39.375 22.873 39.375 22.5C39.375 22.127 39.2268 21.7694 38.9631 21.5056C38.6994 21.2419 38.3417 21.0938 37.9688 21.0938H7.03125ZM7.03125 32.3438C6.65829 32.3438 6.3006 32.4919 6.03688 32.7556C5.77316 33.0194 5.625 33.377 5.625 33.75C5.625 34.123 5.77316 34.4806 6.03688 34.7444C6.3006 35.0081 6.65829 35.1562 7.03125 35.1562H37.9688C38.3417 35.1562 38.6994 35.0081 38.9631 34.7444C39.2268 34.4806 39.375 34.123 39.375 33.75C39.375 33.377 39.2268 33.0194 38.9631 32.7556C38.6994 32.4919 38.3417 32.3438 37.9688 32.3438H7.03125Z" fill="white"/>
</svg>
