<svg width="82" height="82" viewBox="0 0 82 82" fill="none" xmlns="http://www.w3.org/2000/svg">
<path d="M60.9214 81.9542C68.2036 81.9542 73.0179 79.9864 77.2857 75.215C77.6214 74.881 77.9143 74.5042 78.25 74.1685C80.7607 71.365 81.9322 68.6025 81.9322 65.9667C81.9322 62.9525 80.175 60.1489 76.45 57.5525L64.2715 49.0989C60.5036 46.5042 56.1089 46.2114 52.5929 49.6846L49.3714 52.9078C48.4072 53.8703 47.5714 53.9132 46.6089 53.3257C44.3911 51.9025 39.8286 47.9275 36.7304 44.831C33.4661 41.6078 30.2857 38.0096 28.6536 35.3721C28.0679 34.4078 28.1518 33.6132 29.1143 32.6507L32.2947 29.4275C35.8107 25.9132 35.5179 21.4757 32.9232 17.7525L24.4268 5.57389C21.8732 1.84711 19.0697 0.131034 16.0554 0.0899628C13.4197 0.0471056 10.6572 1.26139 7.85359 3.7721C7.4768 4.10782 7.14109 4.40068 6.7643 4.69353C2.03573 8.96139 0.0678711 13.7757 0.0678711 21.015C0.0678711 32.9864 7.43394 47.5507 20.9536 61.0685C34.3875 74.5042 48.9947 81.9542 60.9214 81.9542ZM60.9643 75.5078C50.2911 75.7167 36.6072 67.515 25.7661 56.7167C14.8429 45.8346 6.26251 31.6882 6.47144 21.0167C6.55537 16.4114 8.14644 12.4364 11.4536 9.58996C11.7036 9.33996 11.9536 9.12925 12.2464 8.92032C13.4607 7.83103 14.8429 7.2471 16.0143 7.2471C17.2697 7.2471 18.3572 7.70603 19.1536 8.96139L27.2732 21.14C28.1518 22.4382 28.2357 23.9042 26.9375 25.2007L23.2554 28.8846C20.325 31.7721 20.5768 35.2882 22.6697 38.0917C25.0536 41.315 29.1982 46.0025 32.3786 49.1828C35.6018 52.406 40.6643 56.9257 43.8875 59.3525C46.6911 61.4453 50.25 61.656 53.1375 58.7667L56.8197 55.0846C58.1179 53.7864 59.5411 53.8703 60.8375 54.7078L73.0161 62.8275C74.2732 63.6632 74.775 64.7096 74.775 65.9667C74.775 67.181 74.1893 68.5203 73.0607 69.7739C72.8639 70.0491 72.6541 70.3149 72.4322 70.5703C69.5447 73.8346 65.5679 75.4239 60.9643 75.5078Z" fill="white"/>
</svg>
