<svg width="40" height="40" viewBox="0 0 40 40" fill="none" xmlns="http://www.w3.org/2000/svg">
<g id="iwwa:arrow-left">
<path id="Vector" d="M24.7313 28.1456C24.7985 28.1456 24.865 28.132 24.9269 28.1057C24.9887 28.0795 25.0447 28.041 25.0913 27.9926L32.4503 20.3616C32.5398 20.2684 32.5898 20.1443 32.5898 20.0151C32.5898 19.8859 32.5398 19.7617 32.4503 19.6686L25.0593 12.0066C25.0145 11.9565 24.9601 11.9159 24.8993 11.8873C24.8384 11.8587 24.7725 11.8427 24.7053 11.8402C24.6381 11.8377 24.5712 11.8487 24.5084 11.8727C24.4456 11.8966 24.3883 11.933 24.3398 11.9796C24.2914 12.0262 24.2529 12.0821 24.2265 12.1439C24.2002 12.2058 24.1866 12.2723 24.1866 12.3395C24.1865 12.4067 24.2 12.4732 24.2263 12.5351C24.2525 12.597 24.291 12.6529 24.3393 12.6996L31.3953 20.0146L24.3713 27.2986C24.3032 27.3692 24.2574 27.4583 24.2396 27.5548C24.2218 27.6513 24.2328 27.7509 24.2711 27.8412C24.3095 27.9315 24.3736 28.0085 24.4554 28.0626C24.5373 28.1167 24.6332 28.1456 24.7313 28.1456Z" fill="white"/>
<path id="Vector_2" d="M7.90984 20.5156H32.0898C32.2225 20.5156 32.3496 20.4629 32.4434 20.3692C32.5372 20.2754 32.5898 20.1482 32.5898 20.0156C32.5898 19.883 32.5372 19.7558 32.4434 19.6621C32.3496 19.5683 32.2225 19.5156 32.0898 19.5156H7.90984C7.77724 19.5156 7.65006 19.5683 7.55629 19.6621C7.46252 19.7558 7.40984 19.883 7.40984 20.0156C7.40984 20.1482 7.46252 20.2754 7.55629 20.3692C7.65006 20.4629 7.77724 20.5156 7.90984 20.5156Z" fill="white"/>
</g>
</svg>
