<svg width="27" height="23" viewBox="0 0 27 23" fill="none" xmlns="http://www.w3.org/2000/svg">
<path fill-rule="evenodd" clip-rule="evenodd" d="M6.23515 13.5247C6.28921 13.5414 6.34434 13.5543 6.40015 13.5635C6.7538 14.3968 7.10547 15.231 7.45515 16.066C8.0839 17.5685 8.71765 19.116 8.8564 19.561C9.03015 20.1085 9.21265 20.481 9.41265 20.736C9.5164 20.866 9.63515 20.981 9.77515 21.0685C9.84866 21.1131 9.92657 21.1499 10.0076 21.1785C10.4076 21.3285 10.7726 21.266 11.0014 21.1897C11.1357 21.1441 11.2635 21.0811 11.3814 21.0022L11.3876 20.9997L14.9201 18.7972L19.0014 21.9247C19.0614 21.9706 19.1264 22.0093 19.1964 22.041C19.6864 22.2535 20.1614 22.3285 20.6089 22.2685C21.0539 22.206 21.4076 22.0197 21.6714 21.8085C21.974 21.5641 22.2154 21.2525 22.3764 20.8985L22.3876 20.871L22.3914 20.861L22.3939 20.856V20.8535L22.3951 20.8522C22.4156 20.798 22.4324 20.7425 22.4452 20.686L26.1701 1.90474C26.1804 1.84442 26.1863 1.78342 26.1876 1.72224C26.1876 1.17224 25.9801 0.648489 25.4939 0.332239C25.0764 0.0609886 24.6126 0.0484885 24.3189 0.0709885C24.0039 0.0959885 23.7114 0.173488 23.5151 0.235988C23.4055 0.271398 23.2971 0.310589 23.1901 0.353489L23.1764 0.359738L2.2839 8.55474L2.2814 8.55599C2.21055 8.58158 2.1409 8.61036 2.07265 8.64224C1.90691 8.7166 1.74798 8.80527 1.59765 8.90724C1.3139 9.10099 0.660149 9.63349 0.771399 10.5135C0.858899 11.2135 1.3389 11.6447 1.63265 11.8522C1.79265 11.966 1.94515 12.0472 2.05765 12.101C2.10765 12.126 2.21515 12.1685 2.2614 12.1885L2.2739 12.1922L6.23515 13.5247ZM23.9076 2.08474H23.9051L23.8727 2.09849L2.95515 10.3047L2.92265 10.3172L2.91015 10.321C2.87185 10.3358 2.83431 10.3525 2.79765 10.371C2.8326 10.3906 2.86847 10.4086 2.90515 10.4247L6.83265 11.7472C6.90199 11.7729 6.96892 11.8047 7.03265 11.8422L20.0039 4.24849L20.0164 4.24224C20.067 4.21209 20.1187 4.18374 20.1714 4.15724C20.2614 4.11099 20.4051 4.04349 20.5676 3.99349C20.6801 3.95849 21.0139 3.85974 21.3739 3.97599C21.5651 4.03565 21.7356 4.14817 21.8657 4.30055C21.9957 4.45294 22.08 4.63899 22.1089 4.83724C22.1555 5.01068 22.1567 5.19316 22.1126 5.36724C22.0251 5.71099 21.7851 5.97849 21.5664 6.18349C21.3789 6.35849 18.9464 8.70349 16.5476 11.0185L13.2814 14.1685L12.7001 14.731L20.0401 20.3585C20.1393 20.3999 20.2468 20.417 20.3539 20.4085C20.4078 20.4011 20.4585 20.3786 20.5002 20.3435C20.5508 20.3006 20.5942 20.25 20.6289 20.1935L20.6314 20.1922L24.2439 1.97599C24.1303 2.00397 24.0187 2.03989 23.9101 2.08349L23.9076 2.08474ZM13.3314 17.5772L11.8664 16.4547L11.5114 18.711L13.3314 17.5772ZM10.5226 14.2272L11.9789 12.821L15.2451 9.66849L16.4614 8.49599L8.3114 13.2672L8.35515 13.3697C8.86916 14.584 9.3775 15.8007 9.88015 17.0197L10.2339 14.7697C10.2662 14.5612 10.3679 14.3708 10.5226 14.2272Z" fill="white"/>
</svg>
