<svg width="30" height="30" viewBox="0 0 30 30" fill="none" xmlns="http://www.w3.org/2000/svg">
<path d="M23.8125 4.13757C22.6663 2.9802 21.3013 2.06253 19.7969 1.43802C18.2925 0.813516 16.6789 0.494671 15.05 0.500067C8.225 0.500067 2.6625 6.06257 2.6625 12.8876C2.6625 15.0751 3.2375 17.2001 4.3125 19.0751L2.5625 25.5001L9.125 23.7751C10.9375 24.7626 12.975 25.2876 15.05 25.2876C21.875 25.2876 27.4375 19.7251 27.4375 12.9001C27.4375 9.58757 26.15 6.47507 23.8125 4.13757ZM15.05 23.1876C13.2 23.1876 11.3875 22.6876 9.8 21.7501L9.425 21.5251L5.525 22.5501L6.5625 18.7501L6.3125 18.3626C5.28443 16.7214 4.73866 14.8242 4.7375 12.8876C4.7375 7.21257 9.3625 2.58757 15.0375 2.58757C17.7875 2.58757 20.375 3.66257 22.3125 5.61257C23.272 6.5674 24.0324 7.70325 24.5495 8.95423C25.0667 10.2052 25.3302 11.5464 25.325 12.9001C25.35 18.5751 20.725 23.1876 15.05 23.1876ZM20.7 15.4876C20.3875 15.3376 18.8625 14.5876 18.5875 14.4751C18.3 14.3751 18.1 14.3251 17.8875 14.6251C17.675 14.9376 17.0875 15.6376 16.9125 15.8376C16.7375 16.0501 16.55 16.0751 16.2375 15.9126C15.925 15.7626 14.925 15.4251 13.75 14.3751C12.825 13.5501 12.2125 12.5376 12.025 12.2251C11.85 11.9126 12 11.7501 12.1625 11.5876C12.3 11.4501 12.475 11.2251 12.625 11.0501C12.775 10.8751 12.8375 10.7376 12.9375 10.5376C13.0375 10.3251 12.9875 10.1501 12.9125 10.0001C12.8375 9.85007 12.2125 8.32507 11.9625 7.70007C11.7125 7.10007 11.45 7.17507 11.2625 7.16257H10.6625C10.45 7.16257 10.125 7.23757 9.8375 7.55007C9.5625 7.86257 8.7625 8.61257 8.7625 10.1376C8.7625 11.6626 9.875 13.1376 10.025 13.3376C10.175 13.5501 12.2125 16.6751 15.3125 18.0126C16.05 18.3376 16.625 18.5251 17.075 18.6626C17.8125 18.9001 18.4875 18.8626 19.025 18.7876C19.625 18.7001 20.8625 18.0376 21.1125 17.3126C21.375 16.5876 21.375 15.9751 21.2875 15.8376C21.2 15.7001 21.0125 15.6376 20.7 15.4876Z" fill="white"/>
</svg>
